# xmcd
#
# Track frame offsets:
#	150
#	21049
#	34945
#	56501
#	76638
#	93470
#	109386
#	128282
#	145458
#	160711
#	176992
#	193349
#	211604
#	228356
#	248753
#	264292
#
# Disc length: 3726 seconds
#
# Revision: 0
# Processed by: cddbd v1.5.2PL0 Copyright (c) Steve Scherf et al.
# Submitted via: audiograbber 1.83.01
#
DISCID=cf0e8c10
DTITLE=Buddaheads - Raw
DYEAR=2006
DGENRE=
TTITLE0=Rich man
TTITLE1=Big time baby
TTITLE2=What's come over you?
TTITLE3=Road to ruin
TTITLE4=Stop talkin' that way
TTITLE5=At ten she's a two
TTITLE6=Just for fun
TTITLE7=Cross the water
TTITLE8=Mary don't you weep
TTITLE9=How far can you fall?
TTITLE10=Devil's son
TTITLE11=It's hard to please a woman
TTITLE12=Matter of time
TTITLE13=Can't keep a hold on you
TTITLE14=Chicken head
TTITLE15=Devil's playground
EXTD=
EXTT0=
EXTT1=
EXTT2=
EXTT3=
EXTT4=
EXTT5=
EXTT6=
EXTT7=
EXTT8=
EXTT9=
EXTT10=
EXTT11=
EXTT12=
EXTT13=
EXTT14=
EXTT15=
PLAYORDER=
